<svg xmlns="http://www.w3.org/2000/svg" width="359" height="152" viewBox="-4 -4 367 160">
  <g fill="none" fill-rule="evenodd">
    <g fill="#0098C9">
      <path d="M176.334 108.96h.75V91.657h-6.758v15.985h-3.973v-3.996l-2.748-3.796V86.396h-1.79V70.968h-11.53V81.57h-1.21v11.28l-8.228-1.722V74.444h-6.1v-8.392h-6.757v15.985h-11.68v-10.89l-6.363-8.79-6.39 8.79v3.596H90.095V60.358H79.963v4.77l-3.334-3.174v15.633h-7.12v-3.442h-3.65v-9.26h-1.22v9.064h-7.5v32.97h-2.22v-11.2h-5.07v-9.65L38.91 97.46l.554 42.525h5.604l118.537-2.59v-4.356l4.338 4.35h8.39"/>
      <path d="M329.443 106.32h.846V86.755h-7.65v18.072h-4.49v-4.518l-3.11-4.3v-15.2h-2.03V63.36h-13.03v11.99h-1.37v12.757l-9.31-1.947V67.3h-6.9v-9.49h-7.64v18.07h-13.21V63.57l-7.19-9.94-7.23 9.94v4.066h-15.21v-16.26h-11.45v5.39l-3.77-3.59v17.672h-8.05V66.96h-4.13V56.49h-1.38v10.25h-8.48v37.275h-2.52v-12.66h-5.73v-10.91L174.07 93.32l.628 48.07h6.336l134.015-2.923v-4.927l4.9 4.927h9.49"/>
    </g>
    <path fill="#86D2E2" d="M90.227 116.493c.186.644.322 1.31.402 1.996l-27.98 27.84h-2.41l29.98-29.84zm-1.463-3.173c.32.492.598 1.012.852 1.55l-31.61 31.46h-2.408l33.166-33.01zm1.952 11.94c0 .75-.004 1.556-.004 2.4l-18.76 18.67h-2.405l21.17-21.07zm-23.69-8.818v.43c.056-.2.113-.405.175-.603l7.96-7.93c.93-.29 1.92-.46 2.92-.51l-38.47 38.3H37.2l29.827-29.69zm0-4.63v2.4l-32.07 31.918h-2.41m58.166-16.24l-.002 2.398-14.104 14.04h-2.412l16.518-16.438zm-6.89-20.907c.537.25 1.045.55 1.53.87L48.706 146.33h-2.41l37.526-37.347zm2.794 1.847c.424.38.82.784 1.192 1.215l-34.45 34.284h-2.41l35.668-35.5zm-20.74-11.76c.265.56.485 1.146.66 1.746l-45.53 45.314h-1.803v.193l-.8.006 47.475-47.26zm24.83 35.454v2.4l-9.453 9.405h-2.41l11.864-11.81zM40.91 105.416c.34.468.652.966.925 1.478L2.21 146.33H.936c0-.028 0-.438-.003-1.124l39.974-39.79zm39.325 2.512c.68.085 1.344.23 1.98.43l-38.16 37.97h-1.07v-.2H41.85l38.382-38.2zm10.47 31.225c0 .853 0 1.654-.002 2.403l-4.794 4.773h-2.42l7.21-7.18zm.017-18.523l-.005 2.394L67.3 146.33h-2.404l25.825-25.7zm-.023 23.16c-.01 1.226-.01 2.085-.01 2.402l-.14.137h-2.41l2.55-2.54zm-71.53-28.227v-2.394L31.9 100.5c.72.042 1.42.142 2.098.31L19.17 115.563zm-.55 7.41c.22.607.4 1.24.49 1.902l-18.19 18.1v-2.392l17.69-17.61zm-1.76-2.88c.38.424.72.89 1.02 1.376L.92 138.35l-.002-2.39 15.945-15.868zm26.65-19.5c1.19-3.783 4.18-6.765 7.96-7.926l-7.96 7.925zm-29.26 17.474c.51.268 1 .588 1.46.944L.92 133.73v-2.395l13.33-13.267zm-6.08-.815l-7.04 7.008c.77-3.512 3.54-6.266 7.04-7.006m2.42-.18c.7.04 1.39.16 2.04.352L.91 129.104v-2.396l9.688-9.635zm29.3-12.874l-20.72 20.613c-.01-.82-.01-1.617-.01-2.397l19.46-19.36c.44.353.87.732 1.26 1.143m27.04-1.54c.06.52.1 1.05.1 1.59v.7l-41.38 41.18h-2.4l43.68-43.47zm-47.76 17.52v-2.4l16.52-16.45c.56.22 1.09.49 1.61.79l-18.13 18.05zm47.86-13.01c0 .69 0 1.5-.01 2.39L30.3 146.11h-2.41l39.14-38.95zM61.57 94.1c.477.31.93.66 1.36 1.04l-51.423 51.18H9.102l52.47-52.22zm2.473 2.16c.377.43.723.88 1.033 1.37l-48.92 48.69h-2.41l50.297-50.06zm-44.74 14.54c.175-1.22.532-2.37 1.034-3.43l5.8-5.77c1.067-.5 2.216-.84 3.427-1.01l-10.26 10.21zm23.65-5.03l-.002-1.53c0-.31.02-.608.04-.91l11.23-11.17c.26-.01.52-.03.78-.03.53 0 1.05.037 1.56.104l-13.6 13.53zm-.434 2.66c.18.48.32.98.43 1.49V108L58.4 92.64c.598.173 1.186.4 1.74.664L6.856 146.33H4.45l38.07-37.895zm224.02 4.7c-.2.66-.34 1.35-.42 2.06l28.93 28.79h2.49l-31.01-30.857zm1.51-3.29c-.34.51-.63 1.047-.89 1.6l32.69 32.54h2.49l-34.3-34.14zm-2.02 12.352v2.48l19.4 19.3h2.48m2.6-30.91v.45c-.06-.21-.12-.427-.18-.63l-8.23-8.195c-.97-.294-1.98-.467-3.02-.525l39.79 39.604h2.49l-30.86-30.7zm0-4.79v2.483l33.17 33.01h2.49m-60.16-16.794v2.49l14.59 14.52h2.49l-17.09-17zm7.13-21.62c-.56.26-1.08.57-1.59.9l37.9 37.73h2.49l-38.82-38.62zm-2.89 1.91c-.44.39-.85.81-1.24 1.25l35.62 35.46h2.49l-36.89-36.71zM291.7 95.1c-.272.58-.5 1.18-.685 1.81l47.1 46.87H340v.2l.83.01-49.1-48.87zm-25.682 36.67c0 .84 0 1.67.005 2.48l9.77 9.73h2.49l-12.27-12.21zm51.51-30.1c-.353.48-.673 1-.954 1.52l40.97 40.79h1.31v-1.16l-41.35-41.15zm-40.67 2.59c-.705.09-1.39.24-2.05.45l39.465 39.28h1.11v-.21h1.174l-39.7-39.51zm-10.835 32.3c0 .88 0 1.72.006 2.49l4.96 4.94h2.49l-7.46-7.42zm-.01-19.16c0 .56 0 1.42.004 2.48l24.217 24.1h2.49l-26.71-26.58zm.024 23.95c0 1.27.005 2.16.005 2.49l.14.14h2.49l-2.636-2.63zm73.977-29.19v-2.47l-13.16-13.11c-.747.05-1.47.15-2.174.32l15.34 15.26zm.566 7.67c-.235.63-.412 1.29-.51 1.97l18.814 18.72v-2.47l-18.3-18.21zm1.82-2.98c-.4.44-.75.93-1.06 1.43l17.545 17.46c0-.81.003-1.64.003-2.47l-16.48-16.41zm-27.57-20.16c-1.23-3.91-4.32-7-8.233-8.2l8.237 8.2zm30.27 18.07c-.53.28-1.037.61-1.507.97l15.297 15.23v-2.48l-13.79-13.72zm6.284-.84l7.28 7.25c-.79-3.63-3.65-6.48-7.28-7.25m-2.5-.19c-.732.05-1.44.17-2.12.37l12.13 12.08v-2.48l-10.013-9.97zm-30.29-13.31l21.424 21.33c.003-.85.003-1.677.003-2.48L319.9 99.25c-.46.36-.9.754-1.303 1.176m-27.964-1.593c-.07.54-.11 1.09-.11 1.648v.73l42.79 42.59h2.49L290.64 98.83zm49.39 18.13v-2.472l-17.09-17.01c-.58.23-1.14.51-1.67.83l18.75 18.66zm-49.5-13.45v2.48l37.98 37.8h2.5l-40.47-40.28zm5.65-13.52c-.5.325-.97.685-1.41 1.077l53.18 52.93h2.49L296.18 89.99zm-2.56 2.23c-.39.45-.75.92-1.07 1.42L343.133 144h2.5L293.62 92.22zm46.28 15.03c-.19-1.25-.55-2.44-1.07-3.542l-6-5.97c-1.11-.51-2.3-.87-3.55-1.04l10.61 10.56zm-24.47-5.2l.002-1.58c0-.313-.02-.62-.04-.934L303.77 87.98c-.265-.014-.53-.02-.805-.02-.545 0-1.08.036-1.61.102l14.065 13.993zm.45 2.75c-.186.505-.333 1.023-.45 1.553v-1.997l-15.963-15.9c-.62.18-1.23.41-1.8.68l55.11 54.84h2.49l-39.376-39.19z"/>
    <path fill="#795345" d="M317.515 137.188h2.32v-7.816h-2.32"/>
    <path fill="#8CC473" d="M313.306 127.475c0 2.984 2.404 5.402 5.37 5.402 2.962 0 5.37-2.418 5.37-5.402 0-2.982-2.408-5.4-5.37-5.4-2.966 0-5.37 2.418-5.37 5.4z"/>
    <path fill="#60AF47" d="M318.79 122.082c2.91.06 5.254 2.448 5.254 5.393s-2.345 5.332-5.254 5.395v-10.788z"/>
    <path fill="#795345" d="M13.868 145.792h2.318v-7.813h-2.318"/>
    <path fill="#8CC473" d="M9.657 136.084c0 2.98 2.403 5.4 5.37 5.4 2.965 0 5.368-2.42 5.368-5.4 0-2.983-2.403-5.397-5.37-5.397-2.965 0-5.368 2.414-5.368 5.397"/>
    <path fill="#60AF47" d="M15.144 130.69c2.906.06 5.25 2.45 5.25 5.394s-2.344 5.33-5.25 5.395v-10.79z"/>
    <path fill="#7FCEC9" d="M132.507 144.64h19.208V58.863h-19.208"/>
    <path fill="#365652" d="M134.127 71.636h4.354v-9.294h-4.35m0 21.102h4.36v-9.297h-4.35m0 21.106h4.36V85.96h-4.35m0 21.1h4.36v-9.293h-4.35m0 21.106h4.35v-9.295h-4.35m0 21.104h4.35v-9.297h-4.35"/>
    <path fill="#F6946D" d="M146.714 144.64h17.61V72.385h-17.61"/>
    <path fill="#FEDAB4" d="M149.63 76.71h11.78v-1.162h-11.78m0 4.408h11.78v-1.16h-11.78m0 4.407h11.78V82.04h-11.78m0 4.406h11.78v-1.158h-11.78m0 4.406h11.78v-1.16h-11.78m0 4.408h11.78V91.78h-11.78m0 4.405h11.78v-1.158h-11.78m0 4.403h11.78v-1.16h-11.78m0 4.408h11.78v-1.16h-11.78m0 4.402h11.78v-1.157h-11.78m0 4.403h11.78v-1.16h-11.78m0 4.407h11.78v-1.16h-11.78m0 4.407h11.78v-1.16h-11.78m0 4.41h11.78v-1.16h-11.78m0 4.405h11.78v-1.16h-11.78m0 4.405h11.78v-1.16h-11.78m0 4.405h11.78v-1.16h-11.78m0 4.41h11.78v-1.16h-11.78m0 4.4h11.78v-1.157h-11.78"/>
    <path fill="#E75025" d="M38.474 144.64h15.38v-37.947h-15.38"/>
    <path fill="#F9E66B" d="M39.95 117.612h12.426v-4.938H39.95m0 12.886h12.426v-4.94H39.95m0 12.883h12.426v-4.938H39.95"/>
    <path fill="#5179BA" d="M53.14 144.64h15.38V80.11H53.14"/>
    <path fill="#404041" d="M64.104 134.875c0 .54.354.98.792.98h.113c.43 0 .79-.44.79-.98V83.203c0-.537-.36-.98-.8-.98h-.12c-.44 0-.79.443-.79.98v51.672zm-2.76 0c0 .54.357.98.79.98h.118c.436 0 .79-.44.79-.98V83.203c0-.537-.354-.98-.79-.98h-.117c-.434 0-.79.443-.79.98v51.672zm-2.757 0c0 .54.354.98.79.98h.118c.43 0 .788-.44.788-.98V83.203c0-.537-.357-.98-.788-.98h-.117c-.437 0-.79.443-.79.98v51.672zm-2.76 0c0 .54.355.98.79.98h.117c.433 0 .79-.44.79-.98V83.203c0-.537-.357-.98-.79-.98h-.115c-.44 0-.8.443-.8.98v51.672z"/>
    <path fill="#EF7F58" d="M83.31 90.59h39.31v53.9l-5.246 4.892-32.48-8.54-7.578-44.856"/>
    <path fill="#D8E271" d="M121.73 144.267l-1.104.888v-52.67H82.594l.704-.706h.235v-.24h38.196v52.72zM83.532 96.072h-4.506l.237-.234.24-.246.32-.323h37.916v52.6l-1 .93V96.07H83.53zm36.348 49.775l-1.304 1.233V94.43H80.662l1.097-1.1h38.02v52.517h.09zM82.586 89.634l-6.877 6.438v55.587h41.04v-1.68l5.22-4.77h1.66V89.63H82.58z"/>
    <path fill="#EF7F58" d="M82.587 108.332h7.79V100.5h-7.79m0 19.7h7.79v-7.834h-7.79"/>
    <path fill="#118863" d="M167.895 144.64h42.73v-11.01h-42.73"/>
    <path fill="#61A749" d="M191.072 133.63h14.272V98.01h-14.272"/>
    <path fill="#90C474" d="M194.856 109.113h6.702v-6.045h-6.702m0 15.772h6.702v-6.04h-6.702m0 15.77h6.702v-6.047h-6.702"/>
    <path fill="#488B36" d="M176.8 133.63h14.272V93.91H176.8"/>
    <path fill="#90C474" d="M179.14 133.63h.898V93.91h-.897m2.23 39.72h.9V93.91h-.9m2.22 39.72h.9V93.91h-.9m2.22 39.72h.91V93.91h-.9m2.23 39.72h.9V93.91h-.9"/>
    <path fill="#DC9023" d="M311.828 80.525v64.045h-94.13V80.525h3.362v-6.18h87.403v6.18"/>
    <path fill="#EBAB42" d="M224.113 138.717h39.12V77.92h-39.12v2.604m81.294-2.604h-39.12v60.797h39.12V80.524"/>
    <path fill="#FAE167" d="M227.475 132.212h30.565v-3.248h-30.565m.31-5.854h30.557v-3.244h-30.558m.304-13.66h29.952v-3.574h-29.952m0 12.028h29.952v-3.578h-29.952m-.064-22.105h30.016v-3.25h-30.016m0 11.703h30.016v-3.25h-30.016m42.236 28.93h30.866v-3.244H270.26m0 12.347h30.562v-3.248H270.26m.306-22.76h30.256v-3.573h-30.256m0 12.028h30.256v-3.578h-30.256m.304-22.105h29.952v-3.25H270.87m0 11.703h29.952v-3.25H270.87"/>
    <path fill="#FEFEFE" d="M321.424 64.843c1.46-.523 2.9-1.05 3.743-2.54 1.783-3.163.544-6.9-2.956-8.57-.87-.41-1.33-.85-1.55-1.88-.56-2.705-2.92-3.9-5.47-2.94-.47.174-.82.5-1.19-.212-1.72-3.36-4.46-4.9-8.23-4.52-4.12.89-5.88 2.91-6.54 7.71-.14.97-.39 1.44-1.32 1.85-3.43 1.52-4.65 5.32-2.81 8.46 1.14 1.94 3.02 2.65 5.11 2.66 7.09.05 14.16.01 21.25 0M73.58 41.9c.966-.345 1.92-.687 2.478-1.68 1.183-2.096.363-4.568-1.958-5.673-.577-.274-.878-.56-1.027-1.248-.377-1.8-1.938-2.58-3.63-1.95-.312.11-.543.33-.788-.14-1.14-2.23-2.955-3.25-5.453-3-2.73.59-3.9 1.93-4.336 5.11-.09.64-.262.95-.878 1.22-2.274 1-3.08 3.52-1.86 5.6.75 1.29 1.996 1.74 3.38 1.75 4.688.03 9.38 0 14.07-.01"/>
    <path fill="#525624" d="M309.04 144.64h-1.13V98.556c.05-5.326 4.962-9.05 9.786-9.225 5.473-.18 9.25 2.72 9.867 7.61l-1.123.15c-.543-4.32-3.798-6.81-8.702-6.6-4.29.16-8.654 3.49-8.697 8.1v46.08z"/>
    <path fill="#FCB94C" d="M326.83 95.933c-3.938 0-7.13 3.208-7.13 7.17h14.26c0-3.962-3.19-7.17-7.13-7.17"/>
    <path fill="#FCB94C" d="M329.88 102.447c0 1.695-1.366 3.068-3.05 3.068-1.683 0-3.046-1.373-3.046-3.068 0-1.693 1.363-3.065 3.045-3.065s3.05 1.372 3.05 3.065"/>
    <path fill="#FACB44" d="M198.068 141.286l-.14.016-29.36-.014s-5.553-.644-5.56 7.28v.02l.132-.02 2.276.002c.06-2.052 1.735-3.704 3.794-3.7 2.06 0 3.734 1.648 3.8 3.7l12.534.006c.064-2.054 1.733-3.703 3.798-3.698 2.063-.005 3.732 1.644 3.793 3.702h.71s4.208.65 4.218-7.283h.003-.003l.005-.01z"/>
    <path fill="#57585A" d="M187.474 137.223c-.17-.107-.353-.227-.54-.355l-9.24-.002c-1.418.457-2.73 1.154-3.805 2.31-.53.565-1.16 1.305-1.87 1.828v1.268l20.59.012v-1.722c-1.52-1.367-3.43-2.278-5.15-3.34"/>
    <path fill="#FACB44" d="M173.618 140.986l18.336.005c-2.42-2.23-5.285-3.09-7.422-3.41-.34-.04-1.357-.16-1.748-.16-.45 0-1.422.12-1.755.17-2.13.32-5 1.17-7.42 3.41zm22.165 1.768l-26.005-.01 1.137-1.43c2.983-3.774 7.016-5.07 9.865-5.484.14-.016 1.356-.183 2.004-.18.568 0 1.844.158 1.99.18 2.867.422 6.894 1.72 9.878 5.492l1.13 1.432z"/>
    <path fill="#FACB44" d="M183.2 136.158h-1.114l-.002 5.823 1.115.01"/>
    <path fill="#57585A" d="M164.53 146.662c.55-.005.992-.45.992-1.002.005-.55-.443-1-.988-1h-.9c-.22.566-.388 1.22-.503 1.988.42.01 1.36.01 1.4.014m27.74 2.038c0 1.623-1.31 2.938-2.93 2.938-1.61 0-2.92-1.315-2.92-2.937 0-1.63 1.31-2.94 2.93-2.94s2.93 1.32 2.93 2.95m-20.13-.01c0 1.63-1.3 2.94-2.92 2.94-1.61 0-2.92-1.31-2.92-2.94 0-1.62 1.31-2.94 2.93-2.94s2.92 1.32 2.92 2.95"/>
    <path fill="#A6A9AB" d="M170.64 148.694c0 .795-.64 1.44-1.43 1.44-.79-.002-1.428-.645-1.428-1.44 0-.8.638-1.435 1.43-1.435.792 0 1.43.64 1.43 1.43m20.128 0c0 .79-.638 1.44-1.428 1.44-.793 0-1.43-.65-1.43-1.44 0-.8.637-1.44 1.43-1.44.79 0 1.43.64 1.43 1.44"/>
    <path fill="#795345" d="M335.656 147.293h3.49V135.53h-3.49"/>
    <path fill="#8CC473" d="M329.32 132.676c0 4.49 3.616 8.128 8.08 8.128 4.463 0 8.08-3.638 8.08-8.128s-3.617-8.125-8.08-8.125c-4.464 0-8.08 3.64-8.08 8.13"/>
    <path fill="#60AF47" d="M337.575 124.557c4.378.09 7.905 3.687 7.905 8.12 0 4.432-3.527 8.025-7.905 8.12v-16.24z"/>
    <path fill="#795345" d="M29.48 137.383h1.718v-5.794H29.48"/>
    <path fill="#8CC473" d="M26.358 130.182c0 2.213 1.783 4.005 3.98 4.005 2.2 0 3.98-1.792 3.98-4.005 0-2.21-1.78-4-3.98-4-2.197 0-3.98 1.79-3.98 4"/>
    <path fill="#60AF47" d="M30.423 126.183c2.158.046 3.896 1.818 3.896 4 0 2.187-1.74 3.955-3.9 4.003v-8.003z"/>
    <path fill="#00B7F1" d="M273.325 139.33l.298.597.083.98-.03 1.067-.278.2-.545.185-1.353.02-.06-.3.33-1.76.085-1.05m18.805-.75c-.36-1.47-1.947-2.96-1.947-2.96-.147-.5-1.74-1.01-2.828-1.05-1.084.03-2.676.54-2.83 1.04 0 0-1.81 1.77-1.9 3.11-.057.98.884 1.3 1.543.4-.06.89.075 2.34.713 4.4.63 1.85 1.39.18 1.39.18.31-.49.67-1.18 1.09-1.2.43-.02.78.71 1.09 1.2 0 0 .76 1.67 1.38-.19.66-2.06.78-3.51.73-4.4 1.01.63 1.81.4 1.59-.55"/>
    <path fill="#FEFEFE" d="M285.902 142.277c.465 0 .795.555 1.092 1.05.05.085.1.164.146.24.01.013.015.015.02.03.1.225.34.57.513.57.057 0 .26-.06.493-.743.672-2.144.75-3.54.715-4.33-.01-.077.02-.15.1-.192.07-.04.15-.04.21.006.34.208.66.33.91.33.1 0 .25-.026.33-.138.09-.1.11-.287.05-.52-.34-1.4-1.86-2.84-1.88-2.853-.03-.026-.04-.053-.05-.09-.1-.34-1.52-.876-2.64-.908-1.11.03-2.53.56-2.63.91-.01.03-.03.06-.06.08-.01.01-1.75 1.72-1.83 2.97-.01.24.04.45.16.57.09.09.19.13.33.13.23 0 .48-.16.69-.44.05-.08.15-.11.23-.08.08.03.14.11.13.21-.05.78.05 2.17.71 4.33.24.68.44.74.5.74.18 0 .41-.34.51-.57l.01-.03c.05-.08.1-.15.15-.23.3-.5.64-1.06 1.12-1.07h.02zm1.77 2.293c-.48 0-.82-.666-.875-.8-.05-.075-.105-.15-.148-.243-.22-.356-.52-.845-.75-.845-.27.003-.55.49-.8.87-.04.08-.09.153-.13.22-.06.132-.4.798-.88.798-.36 0-.65-.33-.88-1.02-.56-1.81-.73-3.107-.75-3.96-.42.308-.94.29-1.25-.044-.2-.213-.3-.52-.27-.877.08-1.32 1.66-2.95 1.92-3.21.27-.61 1.95-1.12 2.99-1.13 1.06.01 2.73.52 3.01 1.12.23.24 1.62 1.62 1.96 3.03.11.45 0 .72-.12.87-.15.17-.37.28-.65.28-.25 0-.52-.08-.8-.22 0 .86-.14 2.2-.75 4.11-.23.7-.52 1.03-.87 1.03z"/>
    <path fill="#FEFEFE" d="M288.352 143.49c-.622 1.855-1.38.185-1.38.185s.168-.217.62-.284c.46-.05.76.1.76.1m-4.942 0c.632 1.86 1.385.19 1.385.19s-.33-.2-.644-.25c-.3-.05-.74.07-.74.07"/>
    <path fill="#00B7F1" d="M283.772 134.86c-4.28 1.333-3.234 3.99-6.186 4.916 0 0 4.062 2.768 6.383-.344 3.03-4.062-.2-4.572-.2-4.572"/>
    <path fill="#FEFEFE" d="M280.372 137.934c-.527.788-1.762 1.488-2.918 1.813.46.302 2.317 1.2 3.654 1.2 1.147 0 1.877-.232 2.74-1.606.964-1.51 1.483-2.61 1.168-3.38-.28-.7-1.064-.91-1.233-.94-2.264.72-2.728 1.89-3.41 2.92m-3.114 1.91c-.05-.03-.08-.09-.07-.14.01-.05.05-.09.1-.11 1.28-.4 2.12-.93 2.66-1.78 1.22-1.92 1.38-2.33 3.77-3.07h.06c.04.01 1.11.18 1.49 1.12.37.9-.05 2.14-1.21 3.69-.75 1.01-1.78 1.53-3.03 1.53-1.83 0-3.73-1.17-3.8-1.21"/>
    <path fill="#00B7F1" d="M289.04 139.064c1 .644 1.805.4 1.578-.55-.36-1.473-1.948-2.952-1.948-2.952-.147-.5-1.735-1.016-2.827-1.05-1.088.034-2.668.55-2.83 1.05 0 0-1.807 1.757-1.892 3.1-.06.99.88 1.298 1.54.402 0 0-1.56 3.266-.77 2.988 1.18-.42 2.34-.782 3.17-.772 1.61.04 3.53 1.238 4.19 1.162 1.22-.135-.19-3.378-.19-3.378"/>
    <path fill="#FEFEFE" d="M284.99 141.08h.06c.954.014 2.003.427 2.838.756.532.21 1.028.4 1.288.4h.04c.108-.007.175-.055.234-.142.278-.495-.216-2.077-.6-2.95-.033-.08-.01-.173.05-.236.074-.06.165-.062.25-.018.322.21.645.33.894.33.112 0 .25-.025.335-.126.08-.115.09-.302.04-.528-.34-1.394-1.87-2.84-1.89-2.86-.02-.017-.04-.052-.06-.084-.1-.337-1.51-.877-2.64-.904-1.12.027-2.53.567-2.63.904-.01.032-.03.067-.06.084-.02.02-1.75 1.716-1.83 2.97-.02.247.04.45.17.573.07.09.18.14.31.14.23 0 .48-.16.69-.45.06-.09.18-.12.27-.06.08.06.12.17.08.26-.52 1.06-1 2.33-.99 2.68 1.06-.37 2.26-.76 3.13-.76m4.18 1.57c-.34 0-.83-.2-1.44-.43-.81-.32-1.82-.72-2.7-.74h-.06c-.82 0-2.01.38-3.05.75-.18.07-.34.01-.42-.12-.22-.34.19-1.44.6-2.37-.34.11-.7.03-.94-.22-.19-.21-.3-.52-.27-.88.08-1.32 1.67-2.95 1.92-3.21.28-.62 1.95-1.12 3-1.15 1.06.03 2.73.52 3.01 1.14.24.23 1.62 1.62 1.96 3.02.11.46 0 .73-.11.87-.24.31-.73.37-1.27.15.29.77.73 2.17.36 2.81-.12.19-.29.3-.53.33-.03.01-.06.01-.09.01"/>
    <path fill="#00B7F1" d="M285.884 119.382c4.53 0 8.2 3.686 8.2 8.247 0 4.54-3.67 8.23-8.2 8.23-4.52 0-8.196-3.69-8.196-8.24 0-4.56 3.677-8.25 8.196-8.25"/>
    <path fill="#FEFEFE" d="M285.884 119.615c-4.39 0-7.96 3.595-7.96 8.014 0 4.41 3.57 8 7.96 8 4.392 0 7.964-3.59 7.964-8 0-4.42-3.572-8.02-7.964-8.02m0 16.48c-4.644 0-8.43-3.8-8.43-8.47 0-4.68 3.786-8.49 8.43-8.49 4.648 0 8.44 3.81 8.44 8.48s-3.792 8.47-8.44 8.47"/>
    <path fill="#FEFEFE" d="M285.884 134.44c3.467 0 6.276-2.83 6.276-6.308 0-.606-.084-1.18-.244-1.73H279.86c-.164.55-.253 1.124-.253 1.73 0 3.477 2.81 6.308 6.277 6.308"/>
    <path fill="#00B7F1" d="M285.884 119.382c4.53 0 8.2 3.686 8.2 8.247 0 4.54-3.67 8.23-8.2 8.23-4.52 0-8.196-3.69-8.196-8.24 0-4.56 3.677-8.25 8.196-8.25"/>
    <path fill="#FEFEFE" d="M285.884 119.718c-4.33 0-7.862 3.544-7.862 7.91 0 4.357 3.53 7.897 7.862 7.897 4.34 0 7.86-3.54 7.86-7.896 0-4.37-3.52-7.92-7.86-7.92m0 16.48c-4.703 0-8.532-3.85-8.532-8.58s3.83-8.59 8.532-8.59 8.54 3.86 8.54 8.59-3.838 8.57-8.54 8.57"/>
    <path fill="#FEFEFE" d="M285.884 134.44c3.467 0 6.276-2.83 6.276-6.308 0-.606-.084-1.18-.244-1.73H279.86c-.164.55-.253 1.124-.253 1.73 0 3.477 2.81 6.308 6.277 6.308m4.31 4.366c-.178.174-.456.174-.62 0-.175-.17-.175-.453 0-.628l2.262-2.274c.166-.176.447-.176.62 0 .176.173.176.456 0 .627l-2.262 2.28z"/>
    <path fill="#00B7F1" d="M296.396 136.282c-1.183 1.202-3.123 1.202-4.312 0-1.196-1.2-1.196-3.147 0-4.347 1.19-1.196 3.13-1.196 4.312 0 1.202 1.2 1.202 3.148 0 4.347"/>
    <path fill="#FEFEFE" d="M294.236 131.198c-.765 0-1.49.304-2.037.853-1.14 1.14-1.14 2.98 0 4.12.54.55 1.27.85 2.03.85.78 0 1.5-.3 2.05-.85 1.13-1.13 1.13-2.97 0-4.11-.55-.55-1.27-.85-2.05-.85m0 6.15c-.85 0-1.67-.35-2.28-.95-1.25-1.26-1.25-3.31 0-4.58.61-.61 1.42-.94 2.27-.94.86 0 1.67.34 2.27.95 1.26 1.27 1.26 3.32 0 4.58-.6.6-1.41.95-2.28.95"/>
    <path fill="#FEFEFE" d="M295.683 136.303c1.116-1.208 1.3-2.524.57-3.873.91 1.09.812 2.832-.57 3.873m-27.745-.395c0 .342.268.617.61.617.337 0 .615-.275.615-.617 0-.34-.278-.612-.614-.612-.35 0-.62.272-.62.612"/>
    <path fill="#00B7F1" d="M268.51 119.382c4.524 0 8.204 3.686 8.204 8.247 0 4.54-3.68 8.23-8.203 8.23-4.53 0-8.2-3.69-8.2-8.24 0-4.56 3.67-8.25 8.2-8.25"/>
    <path fill="#FEFEFE" d="M268.51 119.615c-4.388 0-7.96 3.595-7.96 8.014 0 4.41 3.572 8 7.96 8 4.39 0 7.96-3.59 7.96-8 0-4.42-3.57-8.02-7.96-8.02m0 16.48c-4.652 0-8.426-3.8-8.426-8.47 0-4.68 3.774-8.49 8.427-8.49 4.65 0 8.43 3.81 8.43 8.48s-3.78 8.47-8.43 8.47"/>
    <path fill="#FEFEFE" d="M270.764 134.62c-1.163 0-1.797 7.733-.416 7.733.052 0 .257.017.308-.003.726.05.846.084 1.373.084.92.003 1.08.075 1.69-.445.62-3.02-1.14-3.42-2.25-6.44-.26-.66-.5-.94-.71-.94m0 0v.24s.18.03.48.78c.45 1.15.44 2.03 1.07 2.85.97 1.21 1.51 1.76 1.31 3.42-.51.38-.59.42-1.61.43-.73 0-.96-.12-1.39-.32-.02.01-.18.11-.21.11-.2 0-.5-.45-.5-2.72 0-1.12.1-2.31.29-3.2.08-.46.2-.84.32-1.07.13-.28.22-.3.22-.3v-.25m-2.26-.18c3.46 0 6.27-2.83 6.27-6.31 0-.61-.09-1.18-.24-1.73h-12.06c-.16.55-.25 1.12-.25 1.73 0 3.48 2.8 6.31 6.27 6.31m-.34 6.9c0 .12.09.21.21.21h.68c.12 0 .21-.09.21-.21v-.3c0-.11-.09-.21-.21-.21h-.68c-.12 0-.21.1-.21.21v.31z"/>
    <path fill="#27B0E6" d="M268.37 140.907c-.075 0-.132.06-.132.133v.306c0 .074.057.14.132.14h.68c.076 0 .14-.066.14-.14v-.306c0-.073-.064-.133-.14-.133h-.68zm.68.733h-.68c-.164 0-.29-.133-.29-.294v-.306c0-.154.126-.284.29-.284h.68c.163 0 .297.13.297.284v.306c0 .16-.127.294-.298.294z"/>
    <path fill="#00B7F1" d="M265.66 135.554c-1.153 2.935-2.943 3.945-2.493 7.128 1.71-.628 2.137-.48 3.264-.02 1.87.755.93-11.445-.77-7.108"/>
    <path fill="#FEFEFE" d="M266.365 134.62c-.207 0-.448.272-.706.934-1.16 2.934-2.95 3.945-2.5 7.128.81-.298.71-.405 1.35-.405.7 0 1.32.145 1.91.387.06.02.1.025.16.025 1.37 0 .93-8.07-.23-8.07m0 0v.24s.1.02.22.3c.12.23.23.61.32 1.07.18.88.29 2.07.29 3.19 0 2.27-.42 3.01-.61 3.01-.02 0-.05-.01-.08-.02-.69-.12-1.36-.27-2.03-.27-.62 0-.48.03-1.17.26-.06-1.89.56-2.94 1.26-4.01.64-.82.84-1.62 1.3-2.77.29-.75.47-.78.47-.78v-.25"/>
    <path fill="#00B7F1" d="M273.282 138.532c-.36-1.47-1.94-2.958-1.94-2.958-.158-.498-1.74-1.01-2.83-1.045-1.086.03-2.678.54-2.828 1.04 0 0-1.817 1.76-1.896 3.1-.063.98.885 1.3 1.53.4-.058.89.082 2.34.72 4.4.628 1.85 1.38.18 1.38.18.318-.5.643-1.2 1.094-1.2.455 0 .778.7 1.09 1.2 0 0 .747 1.67 1.377-.19.65-2.07.77-3.51.72-4.41 1 .63 1.82.39 1.58-.56"/>
    <path fill="#FEFEFE" d="M268.51 142.277c.49 0 .812.547 1.095 1.02.055.095.11.19.166.27.01.013.02.015.02.015.11.24.34.584.52.584.06 0 .26-.06.5-.742.67-2.153.75-3.544.71-4.33 0-.077.03-.15.1-.192.07-.04.15-.04.21.006.34.208.66.33.91.33.11 0 .26-.026.33-.138.09-.1.11-.287.05-.52-.34-1.4-1.87-2.84-1.89-2.853-.02-.026-.04-.053-.05-.087-.1-.342-1.51-.88-2.65-.91-1.1.03-2.52.568-2.61.906-.01.032-.03.065-.05.09-.01.013-1.75 1.72-1.83 2.968-.01.244.04.45.16.578.09.094.2.132.32.132.23 0 .48-.16.69-.44.06-.078.15-.104.23-.078.09.032.14.115.14.208-.05.78.03 2.165.71 4.33.24.683.44.742.5.742.17 0 .41-.34.51-.568 0-.016.01-.018.01-.03.06-.082.11-.18.17-.274.28-.472.6-1.017 1.1-1.017m1.79 2.293c-.48 0-.81-.666-.88-.8-.05-.083-.11-.168-.16-.267-.21-.366-.49-.82-.75-.82s-.51.427-.74.816c-.06.09-.11.18-.16.27-.06.13-.38.8-.87.8-.36 0-.65-.33-.88-1.02-.56-1.82-.73-3.11-.74-3.96-.42.3-.95.29-1.25-.05-.2-.21-.29-.52-.27-.88.08-1.32 1.66-2.95 1.93-3.21.28-.61 1.95-1.11 2.98-1.13 1.07.01 2.74.51 3.02 1.12.24.24 1.63 1.62 1.97 3.03.1.45-.01.72-.13.87-.14.17-.36.28-.65.28-.24 0-.51-.08-.79-.22 0 .86-.14 2.2-.74 4.11-.24.7-.52 1.03-.88 1.03"/>
    <path fill="#00B7F1" d="M268.51 119.382c4.524 0 8.204 3.686 8.204 8.247 0 4.54-3.68 8.23-8.203 8.23-4.53 0-8.2-3.69-8.2-8.24 0-4.56 3.67-8.25 8.2-8.25"/>
    <path fill="#FEFEFE" d="M268.51 119.718c-4.332 0-7.858 3.544-7.858 7.91 0 4.357 3.526 7.897 7.86 7.897 4.336 0 7.858-3.54 7.858-7.896 0-4.37-3.522-7.92-7.86-7.92m0 16.48c-4.702 0-8.533-3.85-8.533-8.58s3.83-8.59 8.534-8.59c4.71 0 8.54 3.86 8.54 8.59s-3.83 8.57-8.53 8.57"/>
    <path fill="#FEFEFE" d="M268.51 134.44c3.466 0 6.272-2.83 6.272-6.308 0-.606-.09-1.18-.237-1.73h-12.06c-.162.55-.25 1.124-.25 1.73 0 3.477 2.8 6.308 6.276 6.308"/>
    <path fill="#00B7F1" d="M265.304 140.188s1.286-.26 3.245-.26c1.95 0 3.16.26 3.16.26"/>
    <path fill="#FEFEFE" d="M265.338 140.33l-.06-.292c.017 0 1.32-.26 3.27-.26 1.943 0 3.15.252 3.196.26l-.058.292s-1.23-.25-3.137-.25c-1.93 0-3.2.245-3.22.25"/>
    <path fill="#FEFEFE" d="M269.235 139.928c0 .397-.328.728-.723.728-.4 0-.723-.33-.723-.728 0-.403.32-.732.72-.732.39 0 .72.33.72.732"/>
    <path fill="#00B7F1" d="M268.08 137.106s-1.173-.028-2.042-.423c-.857-.4-1.4-.944-1.4-.944l-.01-.02s-.552.55-1.418.95c-.872.39-2.044.42-2.044.42s-.156 1.74.807 3.77c.955 2.02 2.63 2.81 2.655 2.83.024-.02 1.69-.81 2.65-2.83.96-2.03.803-3.77.803-3.77"/>
    <path fill="#FEFEFE" d="M261.314 137.253c-.01.443.026 1.91.807 3.558.81 1.71 2.17 2.54 2.51 2.72.31-.17 1.69-.98 2.51-2.71.78-1.65.81-3.11.8-3.55-.35-.01-1.24-.11-1.97-.42-.66-.31-1.13-.69-1.34-.88-.23.21-.72.6-1.35.89-.71.32-1.6.41-1.96.43m3.32 6.61c-.04 0-.06-.01-.08-.02-.29-.14-1.8-.98-2.71-2.89-.97-2.05-.82-3.78-.82-3.85.01-.08.08-.14.15-.14.02 0 1.17-.04 1.99-.42.75-.34 1.27-.83 1.36-.91.05-.07.18-.07.24 0 0 0 .52.52 1.37.91.83.38 1.97.42 1.99.42.08 0 .15.06.15.14.01.07.16 1.8-.82 3.85-.98 2.07-2.71 2.89-2.73 2.9-.01.01-.04.02-.06.02"/>
    <path fill="#00B7F1" d="M267.577 137.493s-1-.028-1.746-.38c-.72-.326-1.19-.79-1.19-.79v-.003s-.48.467-1.21.794c-.74.35-1.74.38-1.74.38s-.13 1.483.69 3.214c.81 1.72 2.24 2.398 2.26 2.41s1.45-.69 2.26-2.41c.82-1.73.69-3.215.69-3.215"/>
    <path fill="#FEFEFE" d="M261.74 137.548c-.013.294-.023 1.626.682 3.133.737 1.56 1.972 2.25 2.207 2.37.19-.1 1.44-.78 2.2-2.36.71-1.5.69-2.84.69-3.13-.24-.01-1.07-.06-1.72-.36-.62-.29-1.05-.65-1.18-.76-.15.13-.57.48-1.19.77-.64.3-1.48.36-1.71.37m2.89 5.65h-.01s-.02-.01-.04-.01c-.15-.08-1.5-.78-2.29-2.44-.82-1.72-.7-3.24-.7-3.25 0-.03.03-.06.07-.06.01 0 1-.03 1.72-.36.72-.33 1.17-.79 1.17-.79.03-.03.07-.03.1 0 0 0 .46.46 1.18.8.73.33 1.71.36 1.71.36.04 0 .07.03.07.07 0 .02.11 1.53-.7 3.26-.83 1.75-2.28 2.44-2.3 2.45-.01 0-.02.01-.03.01"/>
    <path fill="#FEFEFE" d="M264.448 141.076c-.426-.032-.862-.37-.862-.884 0-.55.667-.42.667 0 0 .28.122.42.35.42.242 0 .315-.173.315-.33 0-.62-1.263-.275-1.263-1.357 0-.43.21-.793.793-.845v-.192c0-.194.32-.2.32 0v.192c.582.052.757.364.736.802-.016.374-.613.43-.618-.083 0-.18-.163-.26-.258-.26-.18 0-.278.1-.278.3 0 .6 1.264.3 1.264 1.32 0 .6-.312.87-.846.91v.16c0 .25-.32.26-.32 0v-.16z"/>
    <path fill="#795345" d="M132.657 144.612h3.722V132.07h-3.73"/>
    <path fill="#8CC473" d="M125.902 129.028c0 4.788 3.855 8.666 8.615 8.666s8.616-3.878 8.616-8.666c0-4.79-3.857-8.662-8.616-8.662-4.76 0-8.615 3.87-8.615 8.662"/>
    <path fill="#60AF47" d="M134.703 120.37c4.67.096 8.43 3.93 8.43 8.658s-3.76 8.554-8.43 8.657V120.37z"/>
    <path fill="#FEFEFE" d="M272.14 43.053l.42 1.53-4.642 9.78-7.106-3.413-.44-1.246"/>
    <path fill="#F4D03A" d="M272.417 44.283l-.388-.994-.32.65-.09.19-4.24 8.93-6.17-2.97-.19-.09-.65-.31.02.07.02.06.24.69.02.07.02.07.07.2.04.02-.02.04 7.1 3.41 4.64-9.78-.15-.3zm.558.27l-4.907 10.344-7.62-3.658-.682-1.84 4.91-10.34 7.618 3.65-.155.33.55 1.36.28.13z"/>
    <path fill="#00B7F1" d="M268.96 16.51l3.983 1.194 1.695 1.157 3.182 3.62.844 3.11.255 2.82-.68 2.65-1.19 2.25-1.32 1.72-2.93 2.21-2.93.86-2.71.17-.98-.34.02.51.7 1.23.08.48-.25.14-.85-.06-1.35-.52-.32-.15.05 1.46-.15 1.14-.29.32-1.03-.44-.72-.8-.92.64-1.85.66-1.46.17-1.87-.22-.68.32-1.54.38-1.34-.07-.52-.28-.03-.41-1.01-.04-1.34-.1-.67-.39-.24-.71.55-1.17 1.69-1.93-.26-.22-1.68-.16-1.54-.34-1.51.08-2.11 1.02-.77.27.64-2.32 2.08-2.42 1.89-.98 2.21-.59 3.64-.08 2.07.29 3.28.53-.93-2.37-.55-3.63.58-3.19 1.71-2.95 1.87-2.06 3.5-1.76"/>
    <path fill="#FEFEFE" d="M245.013 37.434c.19-.084.39-.17.604-.262 1.156-.494 2.578-1.044 4.068-1.464 2.182-.63 5.432-1.453 8.712-1.503.105 0 .225-.005.33-.005.216 0 .434.005.65.017-.04-.04-.06-.085-.104-.122-.157-.222-.32-.447-.47-.675-2.092-.515-4.667-.99-6.977-.99-1.22 0-2.266.135-3.135.395-3.87 1.014-4.96 4.06-5.25 5.356.38-.19.92-.44 1.58-.74m5.85.18c.03.02.05.03.07.04 1.28-1.09 2.71-1.94 3.54-2.42-1.75.3-3.36.73-4.61 1.08-.79.23-1.57.49-2.29.76.85.05 1.94.2 3.3.55m-1.91 3.55c-.06.2-.01.35.16.47.48.39 1.68.48 2.82.36.12 0 .24-.02.36-.04.69-.09 1.34-.26 1.75-.49h.02l.02-.02h.1c.02 0 .02.01.02.01h.03c.01.01.01.01.03.01 0 .01.01.01.01.01l.2.09c1.14.51 2.25.78 3.33.79.01-.03.01-.07.03-.11-.65-.44-1.16-.97-1.57-1.52-1.46-1.99-1.48-4.38-1.46-5.07-1.47.85-5.09 3-5.82 5.55m3.37 1.55l.12.04c.64.18 1.31.34 2.93-.33-.08-.02-.17-.05-.26-.08-.31-.11-.63-.24-.94-.38-.21.1-.47.19-.76.27-.34.1-.74.18-1.16.24-.02.07-.05.13-.03.17.01.03.03.07.12.09m5.83-.87c.05-.02.1-.05.15-.08.09-.02.17-.06.26-.07.09-.02.17-.03.24-.03.4 0 .69.17.76.44.76-.2 1.5-.53 2.21-1-.71-.81-1.37-1.75-1.68-2.23 0-.01-.01-.02-.02-.03-.07-.12-.04-.27.08-.35.11-.07.27-.04.34.08.03.03.04.06.06.09.02.02.03.03.04.05.59.89 1.19 1.67 1.74 2.26l.05.07c.55.58 1.04.96 1.35 1.03.09.01.16.01.22-.01.15-.1.18-.76.09-1.62-.04-.51-.11-1.09-.24-1.68-.01-.02-.01-.03-.01-.05 0-.12.09-.23.21-.25.14-.02.27.07.29.2l.03.16.01-.02c.08-.08.14-.15.21-.23.11-.11.22-.26.35-.43.02-.03.03-.07.06-.09-.07-.02-.15-.04-.22-.07-.32-.09-.63-.21-.94-.35-.18-.06-.35-.15-.52-.23-1.29-.64-2.41-1.49-3.33-2.51-.39-.02-.79-.05-1.19-.05-.43 0-.87.02-1.3.05-.84.14-1.61.31-2.15.51 0 .02.01.06 0 .09 0 .01-.01.16-.01.42 0 .86.15 2.89 1.43 4.58.38.5.86.97 1.45 1.37m8.55-1.83c.02 0 .04-.01.04-.06.05-.22-.16-.8-1-1.7-.08-.02-.17-.04-.26-.07-.22.31-.59.75-.79.95-.05.07-.12.14-.19.21.55.31 1.92.81 2.21.68m1.97-2.36c.49-.02.97-.08 1.44-.17-5.23-.4-8.96-5.66-7.78-11.08 2.7 1.24 7.04 2.07 12.04 1.81 1.32-.06 2.68-.21 4.07-.44.18-4.19-2.2-8.25-6.25-9.98-1.45-.63-2.99-.9-4.55-.82-3.97.2-7.39 2.62-8.95 6.29-1.4 3.29-.96 6.92.85 9.72.08.13.17.26.26.39.1.13.19.26.3.39.06.08.12.15.18.23.07.08.13.15.2.22.02.03.06.06.08.09.04.05.09.1.13.15.07.066.13.135.2.2.12.127.25.245.39.37.82.74 1.77 1.358 2.85 1.83.05.015.11.035.16.058.16.07.32.13.47.19.25.08.51.168.76.23 1.02.28 2.08.39 3.16.34m2.52-.66c.28-.01.57-.042.86-.09 2.47-1.01 4.48-2.95 5.57-5.53.43-1.01.68-2.05.78-3.1-1.34.22-2.68.36-4.02.44-4.34.22-8.65-.37-11.68-1.6-.17 1.187-.11 2.37.18 3.527.33 1.28.96 2.5 1.8 3.49.79.94 1.78 1.7 2.86 2.18 1.14.52 2.37.75 3.65.69m-22.65-4.74c.91-.29 2.02-.434 3.3-.434 2.15 0 4.53.4 6.55.873-1.58-2.91-1.88-6.48-.49-9.77 1.69-3.97 5.39-6.58 9.69-6.79 1.69-.09 3.35.205 4.93.88 5.66 2.42 8.3 9.02 5.89 14.7-.74 1.74-1.88 3.23-3.27 4.36-.36.31-1.23.88-1.31.91-1.52.89-3.26 1.43-5.1 1.52-.74.04-1.47 0-2.2-.1.53.66.79 1.236.72 1.64-.03.2-.13.34-.29.42-.3.086-.39.075-.57.054-.26-.02-.49-.055-.72-.16-.42-.14-.85-.32-1.17-.47l.06.49c.09.95.06 1.89-.36 2.11l-.15.05c-.05.02-.11.02-.17.02-.51 0-1.12-.47-1.72-1.08-.88.6-1.8.99-2.76 1.2l-.01.01c-.15.12-.35.21-.56.25-.08.01-.16.025-.245.025-.21 0-.39-.05-.52-.13H258c-.575 0-1.16-.07-1.76-.21-1.263.6-2.083.77-2.7.77-.45 0-.77-.07-1.09-.15l-.12-.05c-.35-.11-.43-.28-.48-.41-.03-.09-.03-.19-.025-.27-.23.016-.46.025-.69.025-.92 0-1.77-.15-2.22-.52-.314-.25-.434-.6-.32-1 .3-1.05 1.04-2.03 1.93-2.88-2.5-.62-3.96-.5-4.6-.38-1.55.67-2.6 1.24-2.62 1.25-.04.03-.09.04-.145.04-.07 0-.12-.02-.17-.05-.09-.07-.15-.18-.14-.29 0-.05.51-5.09 5.8-6.47"/>
    <path fill="#FEFEFE" d="M262.52 26.81l3.023.918 3.415.52 3.606.236 2.27-.036 2.378-.258 1.25-.194.307.488-.25 1.53-1.14 2.79-1.51 2-2.23 1.728-1.81.95-1.86-.21-1.94-.413-1.64-.85-1.76-1.5-1.1-1.47-.74-1.81-.46-1.92m-68.66-15.55l.54-.12.49-.26.08-.11.95.05 1.15.32.56.33.79-.75.77-.77.99-.62.32-.02.84.02-.02 6.03-.1.13-4.37 1.9-1.23-.17-2.7-.33-.05-.15"/>
    <path fill="#87C76F" d="M201.045 17.88c.024.223-2.975.665-4.326 1.68 0-.113 0-.293.01-.483.22-.266 1.01-1.108 2.3-1.455.29-.08.6-.128.91-.144.03-.003.05-.027.05-.066l.19-4.857.02-.417.01-.24.28.03.48.075.09.01h.02c-.01.643-.04 4.734-.05 5.867m-8.14 1.363l.86-5.388h.01c.04-.008.08-.018.12-.02.03-.01.07-.014.1-.03.22-.06.39-.137.5-.21.04-.026.07-.05.1-.07l-.02.082-.06.328-.89 4.58c0 .02 0 .038.02.056.01.01.03.02.05.02 0 0 1.2-.16 2.74.55-.01.15-.01.34 0 .48-1.68-.41-3.57-.37-3.57-.37M200 12l-.21 5.3c-.285.02-.564.07-.83.15l-.384.12c-.92.35-1.555.91-1.865 1.23.09-1.6.41-3.68.89-4.72.05-.05.1-.11.14-.15 1.24-1.4 1.98-1.8 2.26-1.91m-2.66 2.04c-.49 1.12-.81 3.275-.89 4.888-1.23-.55-2.22-.562-2.6-.535l.98-4.993c1.46-.11 2.29.46 2.52.64m3.77-2.534l-.49.335-.49-.07h-.01s-.03 0-.08.02c-.28.07-1.09.44-2.56 2.13-.21-.18-1.11-.85-2.78-.7-.03 0-.05.03-.06.05v.05c-.01.01-.01.02-.02.03 0 0-.08.13-.32.24 0 0-.46-.08-.63-.1-.17-.03-.2.15-.2.15l-.95 5.91 4.1.63 4.74-2.04s.04-5.96.05-6.36c.01-.4-.28-.25-.28-.25"/>
    <path fill="#87C76F" d="M196.7 14.303s-.556-.22-.747-.248c-.18-.028-.724.024-.724.024l.06-.27s.41-.08.69-.05c.33.03.78.24.78.24l-.08.28zm-.128.677s-.555-.222-.746-.25c-.18-.027-.725.025-.725.025l.07-.262s.41-.076.7-.048c.34.032.78.248.78.248l-.07.286zm-.128.675s-.553-.22-.744-.248c-.183-.028-.726.024-.726.024l.07-.26s.41-.07.694-.05c.334.04.78.25.78.25l-.074.29zm-.127.675s-.554-.22-.745-.248c-.182-.027-.724.025-.724.025l.068-.262s.41-.076.695-.048c.34.032.79.248.79.248l-.07.286zm-.127.677s-.554-.22-.745-.248c-.182-.03-.725.02-.725.02l.068-.26s.412-.08.695-.05c.334.03.78.25.78.25l-.074.28zm-.128.676s-.553-.22-.744-.248c-.182-.028-.725.024-.725.024l.07-.27s.41-.08.693-.05c.334.03.78.24.78.24l-.074.28zm-.126.677s-.555-.222-.746-.25c-.18-.027-.724.025-.724.025l.07-.262s.41-.076.693-.048c.33.032.78.248.78.248l-.08.286zm1.848-4.097s1.126-1.21 1.915-1.506l-.05.333s-.72.496-.95.677c-.25.194-1.06.913-1.06.913l.13-.417zm-.09.82s1.125-1.21 1.913-1.504l-.043.33s-.715.49-.945.67c-.25.19-1.06.91-1.06.91l.12-.42zm-.124.764s1.202-1.132 2.008-1.377l-.066.33s-.744.447-.988.614c-.26.178-1.11.842-1.11.842l.157-.41zm-.154.773s1.288-1.032 2.112-1.21l-.093.323s-.776.385-1.03.532c-.275.156-1.178.75-1.178.75l.19-.396zm-.09.85s1.307-1.008 2.134-1.172l-.097.32s-.786.376-1.043.515c-.277.15-1.188.728-1.188.728l.195-.39z"/>
    <path fill="#00B7F1" d="M209.825 10.163l-.683-1.065-.832-.802-1.385-.38-1.022.096-1.25.284-1.516.725-.53.14.283-.47.476-1.05.225-1.64-.11-1.08-.34-1.03-1.04-1.81-1.1-.82-1.61-.74-1.38-.19-1.42.23-1.5.53-1.17.96-.9 1.26-.64 2 .1 2.18 1.31 2.3 1.58 1.28 2.46.59.19.36.74.17.63.08.36-.09.23.17-.13.99-.1-.02v.21c.02.1.26.4.26.4l.52-.02.13-.09.01-.03.23-.36.53.4 1.27.65 1.63.31.32-.45 1.03.21.52-.17.02-.31.5.11 1.03-.17.25-.28-.11-.49-.61-.93-.26-.34.1-.99-.09-.71.87.14.84.25 1.16.4.44.1-.41-.9z"/>
    <path fill="#FEFEFE" d="M192.53 6.45l1.748.15 2.398-.064 1.932-.265 1.225-.33.996-.39.17.64-.05 1.08-.25 1.03-.45.82-.74.91-.84.62-.84.37-.89.16-.59.09-1.1-.24-1.79-1.53-.95-1.87"/>
    <path fill="#FEFEFE" d="M207.19 10.046c-.093-.016-.188-.025-.284-.032l-.113-.007c-.136-.005-.268-.007-.407-.005h-.06l-.25.01c-.102.002-.214.005-.323.01l-1.15.046c-.118.005-.233.014-.35.023l-.4.03c-.765.06-1.52.14-2.164.27.04-.03.08-.07.12-.11l.18-.17c.05-.05.11-.11.16-.17.04-.04.08-.08.11-.13.04-.03.07-.08.1-.11l.09-.12c.03-.04.07-.1.1-.15 1.27-.7 2.85-1.42 4.09-1.42h.03c.04 0 .07.03.11.03 1.91 0 2.84 2.02 3.15 2.81-.53-.22-1.63-.65-2.77-.78m.58 3.44c.02.1 0 .18-.09.24-.26.2-.89.22-1.49.14-.06 0-.12-.02-.18-.03-.33-.05-.63-.15-.85-.26.19-.2.41-.38.65-.49.56-.24.9-.6 1.1-.98.4.42.72.89.84 1.38m-1.81.74l-.05.02c-.29.07-.59.14-1.19-.08l.12-.18.56-.01.62.15c.01.03.02.06.01.08 0 .02-.03.03-.08.04m-1.43-.25c-.02.03-.03.05-.05.08-.02.04-.04.08-.07.11l-.07.12c-.06.12-.11.22-.14.29-1.34-.09-2.37-.6-3.13-1.2.43-.43.83-.98 1.01-1.24.01 0 .01-.01.02-.02.03-.06.01-.13-.04-.16-.06-.04-.14-.03-.19.03 0 .01 0 .02-.01.02-.01.01-.02.03-.04.05-.33.46-.67.86-.96 1.16l-.1.1-.07.07-.02.02c-.14.13-.27.22-.38.29-.13.07-.22.1-.29.06-.02-.02-.04-.08-.05-.17-.01-.1 0-.25.01-.43.01-.12.03-.25.05-.4.01-.05.02-.1.02-.16l.04-.17c.02-.13.05-.25.08-.38v-.03c0-.06-.04-.12-.1-.13-.07-.02-.14.03-.15.09-.01.06-.03.11-.04.18-.17-.22-.3-.42-.39-.57.3-.08.6-.19.88-.33.02 0 .03-.01.04-.01.21-.1.42-.21.61-.33.92-.32 2.33-.44 3.64-.51.08 0 .17-.01.25-.01.07 0 .15-.01.22-.01.34-.02.66-.02.96-.03l.24-.01c.17 0 .34 0 .51.01.06.23.16.78-.01 1.33l-.04.14-.06.13c-.18.36-.49.7-1.02.94-.35.15-.64.42-.88.71-.12.14-.23.29-.31.43m-6.5-2.22c.4 0 .8-.05 1.19-.14.07.12.16.26.27.43-.94.02-1.36-.16-1.46-.28m-.93-.51c2.72-.31 4.58-3.13 3.87-5.94-1.39.7-3.64 1.21-6.26 1.17-.69-.02-1.4-.07-2.13-.16-.17-2.19 1-4.35 3.09-5.33.75-.35 1.54-.53 2.36-.51 2.07.03 3.91 1.23 4.783 3.12.92 1.96.55 4.2-.75 5.77-.03.04-.07.08-.1.12-.03.04-.07.08-.11.11-.04.04-.07.08-.11.12l-.03.03c-.4.39-.87.73-1.4.99-.03.01-.06.03-.09.04l-.14.07c-.07.03-.15.06-.22.09-.22.08-.43.15-.655.21-.02 0-.05.01-.07.02-.09.02-.18.03-.27.05-.166.03-.33.05-.49.06-.1 0-.2.01-.31.01-.07.01-.14.01-.21.01-.25-.01-.5-.03-.75-.07m-1.02-.27c-1.31-.48-2.4-1.46-3.01-2.79-.24-.52-.4-1.06-.47-1.6.7.09 1.41.15 2.11.16 2.28.04 4.52-.35 6.08-1.05.11.62.1 1.24-.03 1.85-.15.68-.45 1.32-.88 1.86-.39.51-.9.92-1.45 1.19-.587.3-1.226.44-1.896.43-.145 0-.3-.01-.45-.03M206.7 7.8h-.03c-1.145 0-2.53.54-3.73 1.16.95-1.614 1.12-3.66.273-5.48-.95-2.047-2.938-3.344-5.18-3.38-.89-.01-1.75.175-2.56.55-2.91 1.37-4.178 4.87-2.817 7.795.42.9 1.04 1.65 1.79 2.22.2.153.66.43.707.45.778.424 1.66.67 2.585.7.01.04.02.08.05.13.18.26.773.415 1.61.415h.264c.04.05.08.108.12.164-.03.19-.06.39-.074.59 0 0-.02.32-.01.43.015.23.07.41.187.47.06.04.12.05.188.05.12 0 .26-.052.41-.14 0 0 .234-.14.38-.29.01-.01.02-.014.025-.023.82.65 1.94 1.2 3.41 1.28.05 0 .1-.03.12-.08 0 0 .064-.16.19-.37.36.14.625.18.85.18.205 0 .37-.04.52-.07l.05-.01c.17-.04.24-.13.264-.2.01-.05.01-.09.01-.14.173.02.343.03.507.03.42 0 .8-.07 1.02-.23.17-.12.24-.31.18-.51-.14-.56-.52-1.1-.98-1.57.21-.59.14-1.19.07-1.5 1.53.18 3.01.91 3.03.92.02.01.04.01.07.01.03 0 .06-.01.09-.03.05-.04.06-.1.05-.16-.01-.03-.98-3.43-3.66-3.33M163.53 60.2l5.695-1.11 4.15-3.027 1.22-.63 2.61 5.906 1.36 3.58-3.71 2.99-1.43.99-6.02 1.14"/>
    <path fill="#E75025" d="M176.95 64.295l-.402-.486-3.1 2.83.402.48 3.1-2.83zm-.62-1.48l-.427-.543-3.098 2.832.43.543 3.095-2.832zm-.72-1.724l-.404-.48-3.098 2.83.428.55 3.074-2.89zm-.697-1.66l-.428-.54-3.1 2.83.433.55 3.095-2.83zm-.693-1.65l-.186-.29-.24-.25-.84.71-2.26 2.12.428.55 3.098-2.83zm-2.03-.37l-2.412 1.75.05.13 3.783 9.05 4.41-3.23-3.3-7.88-.31-.74-.23-.55-1.98 1.49zm-.22 9.88l-4.18.25.062.62 4.124-.22-.006-.64zm-.645-1.54l-4.18.26.09.69 4.12-.23-.03-.71zm-.695-1.66l-4.18.25.063.63 4.15-.16-.033-.71zm-.722-1.72l-4.177.25.09.69 4.13-.22-.03-.71zm-.693-1.66l-3.087.15-1.09.1.012.35.075.34 4.122-.22-.032-.71zm-4.847.89l3.298 7.88 5.378-.9-3.786-9.05-.052-.12-2.93.51-2.448.39.234.55.306.74zm11.354-6.1l4.105 9.81-5.904 3.78-.062.02-.45.19-.06.03-6.8 1.61-4.1-9.81 1.05-.01-.54-1.3 6.06-1.04.45-.19 4.98-3.62.54 1.3.75-.74z"/>
    <path fill="#00B7F1" d="M192.232 52.005l-1.22-1.91-1.495-1.437-2.475-.676-1.83.166-2.236.51-2.713 1.298-.95.243.504-.85.855-1.89.405-2.93-.205-1.95-.61-1.84-1.866-3.25-1.97-1.46-2.877-1.34-2.48-.34-2.55.41-2.68.95-2.11 1.7-1.63 2.25-1.15 3.58.17 3.88 2.33 4.13 2.81 2.29 4.41 1.05.34.65 1.32.3 1.11.13.64-.17.41.3-.24 1.77-.18-.05c0 .15-.01.29 0 .38.02.2.47.73.47.73l.91-.04.23-.16.02-.07.41-.64.95.71 2.28 1.15 2.91.55.57-.82 1.83.37.94-.3.03-.58.88.21 1.83-.31.44-.51-.2-.89-1.09-1.67-.47-.61.17-1.78-.17-1.26 1.56.23 1.49.45 2.07.71.78.17-.75-1.6z"/>
    <path fill="#FEFEFE" d="M161.275 45.353l3.13.274 4.29-.12 3.458-.467 2.192-.607 1.784-.697.31 1.15-.09 1.93-.45 1.837-.8 1.464-1.32 1.635-1.5 1.1-1.5.652-1.59.292-1.05.165-1.97-.45-3.2-2.73-1.7-3.35"/>
    <path fill="#FEFEFE" d="M187.52 51.79c-.17-.022-.34-.037-.512-.054-.073-.005-.13-.005-.203-.007-.245-.01-.483-.02-.726-.01h-.11l-.45.01c-.19 0-.39.01-.59.02-.66.02-1.35.04-2.06.08l-.63.04c-.24.01-.48.02-.72.04-1.37.1-2.72.24-3.87.48l.23-.2c.1-.1.21-.2.32-.31.1-.1.2-.2.29-.31l.2-.23.17-.21c.06-.07.12-.15.17-.23.06-.08.12-.18.19-.27 2.28-1.27 5.11-2.55 7.32-2.55h.06c.07 0 .13.04.19.04 3.41 0 5.09 3.61 5.63 5.03-.94-.41-2.9-1.17-4.95-1.42m1.03 6.15c.05.18 0 .32-.16.43-.46.35-1.58.4-2.66.25-.11-.01-.22-.04-.33-.06-.58-.1-1.13-.27-1.51-.46.33-.37.73-.68 1.17-.88 1-.45 1.62-1.08 1.97-1.76.71.75 1.29 1.59 1.5 2.47m-3.23 1.32l-.09.02c-.52.12-1.05.24-2.12-.15.07-.11.14-.22.22-.33l1-.03 1.11.26c.02.05.03.11.01.14-.01.03-.06.05-.14.07m-2.56-.45c-.03.05-.06.09-.09.15-.04.06-.08.13-.12.19-.05.07-.08.14-.12.21-.12.21-.21.39-.26.51-2.41-.17-4.25-1.08-5.62-2.14.77-.78 1.49-1.75 1.82-2.22l.02-.02c.06-.1.03-.23-.07-.3-.11-.07-.25-.05-.33.06 0 0-.01.01-.02.03-.02.03-.04.06-.07.09-.59.82-1.19 1.53-1.72 2.06-.06.06-.11.12-.17.17-.05.04-.1.08-.14.12l-.02.03c-.26.22-.49.4-.68.5-.23.13-.41.17-.52.11-.05-.04-.08-.14-.09-.3-.02-.19-.01-.46.02-.77.01-.22.04-.46.08-.73.01-.09.03-.19.04-.29.02-.09.04-.2.06-.31.04-.22.09-.45.15-.68v-.05c0-.11-.07-.21-.18-.23-.13-.04-.25.04-.28.17-.02.09-.05.19-.07.31-.3-.4-.52-.76-.69-1.03.55-.15 1.08-.35 1.59-.58l.08-.04c.37-.17.74-.38 1.09-.59 1.65-.56 4.16-.79 6.51-.91.15 0 .29-.01.44-.02l.41-.01c.6-.03 1.18-.05 1.72-.07l.44-.01c.3-.01.61-.01.92.02.1.4.29 1.38-.02 2.38-.02.07-.05.16-.08.24-.03.07-.07.14-.11.22-.31.65-.86 1.25-1.82 1.68-.62.27-1.14.75-1.57 1.26-.22.25-.4.51-.56.76m-11.64-3.95c.72-.01 1.44-.1 2.14-.26.11.21.26.47.47.76-1.68.02-2.42-.3-2.61-.51m-1.66-.91c4.87-.56 8.2-5.6 6.93-10.63-2.49 1.25-6.52 2.17-11.2 2.08-1.24-.02-2.52-.11-3.83-.28-.31-3.91 1.79-7.78 5.52-9.53 1.34-.64 2.77-.95 4.23-.92 3.71.06 7.01 2.2 8.58 5.59 1.64 3.52.98 7.53-1.34 10.32l-.19.23c-.06.07-.13.14-.2.2-.07.07-.13.14-.2.21-.03.03-.04.04-.07.06-.72.71-1.56 1.32-2.51 1.79l-.15.07c-.09.04-.17.07-.26.11-.13.06-.26.12-.4.16-.38.15-.77.27-1.17.37-.04 0-.08.02-.12.03-.16.04-.33.07-.49.1-.29.05-.59.09-.88.12-.19.013-.36.02-.54.023-.13 0-.26.003-.38 0-.46 0-.91-.04-1.36-.11m-1.83-.48c-2.34-.866-4.29-2.62-5.38-4.99-.44-.94-.71-1.907-.83-2.87 1.25.154 2.51.25 3.77.27 4.07.07 8.08-.62 10.88-1.88.2 1.1.18 2.21-.06 3.3-.27 1.213-.81 2.364-1.58 3.33-.707.9-1.608 1.64-2.6 2.133-1.05.53-2.197.785-3.398.765-.26-.01-.54-.027-.81-.06m19.03-5.8h-.06c-2.05 0-4.52.97-6.67 2.073 1.7-2.89 2.01-6.55.49-9.81-1.7-3.664-5.26-5.985-9.28-6.05-1.59-.03-3.13.31-4.58.99-5.21 2.44-7.47 8.7-5.04 13.94.75 1.604 1.86 2.96 3.21 3.97.34.283 1.176.78 1.26.81 1.384.76 2.96 1.2 4.62 1.26.01.07.04.15.08.22.32.48 1.39.76 2.89.76.15 0 .31 0 .47-.01.077.09.156.19.23.29-.06.34-.115.7-.15 1.05 0 0-.03.58-.02.77.02.412.12.732.33.85.105.05.21.08.33.08.22 0 .47-.1.73-.25 0 0 .42-.26.687-.52.02-.02.04-.03.05-.04 1.46 1.15 3.46 2.14 6.09 2.28h.02c.094 0 .18-.06.216-.15 0-.01.12-.28.335-.67.644.24 1.13.32 1.524.32.37 0 .66-.06.93-.13l.08-.02c.31-.07.43-.24.48-.37.03-.08.03-.16.03-.24.3.03.61.05.905.05.75 0 1.44-.12 1.83-.42.3-.226.426-.56.33-.92-.25-1.02-.93-1.976-1.75-2.815.387-1.06.26-2.14.14-2.696 2.74.31 5.39 1.62 5.42 1.64.04.015.08.02.12.02.06 0 .12-.015.17-.06.082-.07.114-.174.084-.28-.01-.063-1.74-6.144-6.54-5.965M99.46 24.03l.596.074.6-.086.122-.09.954.38 1.062.73.456.53 1.066-.49 1.047-.51 1.22-.286.33.09.846.313-2.07 6.148-.15.1-5.09.43-1.2-.6-2.64-1.26v-.17"/>
    <path fill="#F5A2BD" d="M105.585 30.788c-.05.236-3.257-.352-4.98.22.038-.116.107-.3.18-.49.317-.193 1.407-.778 2.84-.69.325.02.654.08.972.168.037.01.068-.008.082-.048l1.85-4.884.16-.417.09-.242.27.13.47.243.08.038c0 .005.01.007.01.007-.22.655-1.65 4.814-2.05 5.965m-8.75-1.42l2.71-5.195c0 .004.01.006.01.006.04 0 .09.01.13.02.04 0 .08.01.11 0 .25.01.44 0 .58-.04.05-.02.09-.03.13-.04l-.05.08-.18.31-2.46 4.36c-.01.02-.01.04 0 .06 0 .01.02.03.05.03 0 0 1.27.24 2.61 1.5-.06.14-.13.34-.17.49-1.57-1-3.5-1.61-3.5-1.61m9.73-4.94l-2.02 5.33c-.3-.08-.6-.12-.9-.14-.15 0-.29-.01-.43-.01-1.06.03-1.9.39-2.33.61.63-1.61 1.67-3.62 2.51-4.51.07-.04.14-.08.2-.11 1.75-1.01 2.63-1.16 2.95-1.17m-3.4 1.16c-.88.97-1.95 3.05-2.57 4.67-1.07-.99-2.07-1.34-2.47-1.45l2.69-4.76c1.52.39 2.18 1.26 2.34 1.52m4.7-1.28l-.61.18-.47-.25h-.01c-.01 0-.03-.01-.09-.01-.32-.02-1.26.07-3.34 1.29-.16-.26-.85-1.26-2.6-1.68-.03-.01-.06.01-.08.03l-.02.04-.03.02s-.13.09-.42.13c0 0-.44-.24-.61-.32-.17-.09-.26.08-.26.08l-2.97 5.7 3.96 2.06 5.53-.45s2.08-6.07 2.22-6.47c.14-.4-.21-.35-.21-.35"/>
    <path fill="#F5A2BD" d="M102.378 25.64s-.488-.415-.675-.51c-.175-.09-.744-.225-.744-.225l.15-.244s.44.07.72.2c.33.15.71.53.71.53l-.18.27zm-.358.645s-.492-.416-.678-.51c-.175-.09-.744-.226-.744-.226l.16-.25s.443.06.72.19c.333.15.714.52.714.52l-.173.26zm-.362.645s-.49-.415-.674-.51c-.176-.09-.745-.224-.745-.224l.16-.245s.44.07.72.2c.33.15.71.53.71.53l-.18.27zm-.36.647s-.49-.418-.673-.51c-.175-.092-.746-.227-.746-.227l.15-.243s.44.065.72.19c.33.148.71.526.71.526l-.18.264zm-.358.645s-.492-.416-.676-.51c-.175-.09-.744-.226-.744-.226l.157-.244s.445.066.723.19c.33.15.714.524.714.524l-.175.266zm-.36.646s-.49-.42-.677-.51c-.173-.093-.745-.225-.745-.225l.16-.245s.443.065.723.19c.33.147.72.524.72.524l-.17.266zm-.36.644s-.492-.417-.676-.51c-.175-.09-.747-.225-.747-.225l.16-.245s.442.067.724.19c.33.15.72.525.72.525l-.17.265zm3.278-3.538s1.56-.843 2.464-.872l-.16.323s-.896.26-1.19.364c-.322.11-1.387.56-1.387.56l.273-.38zm-.373.806s1.56-.842 2.462-.872l-.156.324s-.89.26-1.19.363c-.32.112-1.38.567-1.38.567l.27-.38zm-.385.736s1.61-.74 2.513-.71l-.18.313s-.91.19-1.212.28c-.32.09-1.41.47-1.41.47l.3-.37zm-.42.734s1.662-.606 2.56-.5l-.2.296s-.925.123-1.234.18c-.334.068-1.452.36-1.452.36l.326-.337zm-.382.837s1.673-.578 2.574-.457l-.21.293s-.926.11-1.236.164c-.335.058-1.46.33-1.46.33l.332-.33z"/>
    <path fill="#00B7F1" d="M102.47 9.704l2.47.74 1.05.717 1.972 2.25.523 1.93.16 1.75-.42 1.64-.738 1.4-.812 1.07-1.812 1.37-1.815.53-1.68.1-.607-.21.02.32.44.76.05.3-.15.08-.52-.04-.83-.32-.2-.1.04.91-.1.7-.17.2-.64-.27-.44-.5-.57.4-1.14.41-.9.12-1.16-.14-.42.2-.95.24-.83-.04-.32-.18-.02-.25-.62-.03-.83-.06-.42-.24-.14-.44.34-.73 1.05-1.2-.15-.14-1.04-.1-.96-.21-.93.05-1.3.64-.48.17.39-1.44 1.3-1.5 1.18-.61 1.37-.36 2.26-.05 1.29.18 2.04.33-.57-1.48-.34-2.25.36-1.97 1.06-1.83 1.15-1.27 2.17-1.09"/>
    <path fill="#FEFEFE" d="M87.63 22.674c.118-.056.244-.108.376-.165.714-.31 1.598-.65 2.52-.91 1.354-.39 3.368-.9 5.398-.93l.204-.01c.138 0 .274 0 .405.01l-.064-.08-.3-.42c-1.3-.32-2.89-.62-4.33-.62-.76 0-1.41.08-1.94.25-2.41.62-3.08 2.51-3.26 3.31.23-.12.57-.28.97-.46m3.62.11l.04.01c.79-.68 1.67-1.2 2.18-1.5-1.09.18-2.08.45-2.86.67-.49.14-.98.3-1.42.47.52.02 1.19.12 2.04.34m-1.18 2.2c-.04.12-.01.21.09.29.3.24 1.04.3 1.75.23l.22-.03c.43-.06.83-.17 1.08-.31 0-.01.01-.01.01-.01s.01-.01.02-.01l.01-.01c.01 0 .01 0 .02-.01h.07v.01c.04.01.08.03.12.05.7.31 1.39.48 2.05.49 0-.03.01-.05.02-.07-.41-.28-.73-.61-.98-.95-.9-1.24-.92-2.72-.91-3.15-.91.53-3.16 1.85-3.61 3.44m2.08.96l.07.02c.4.1.82.2 1.81-.21-.05-.02-.1-.04-.16-.06-.19-.07-.39-.15-.58-.24-.13.06-.29.12-.47.17-.22.06-.47.11-.73.14-.01.04-.03.08-.02.11 0 .02.02.04.07.06m3.61-.54c.03-.02.06-.04.09-.05.05-.02.1-.04.16-.04.05-.01.1-.02.14-.02.25 0 .43.11.47.27.47-.12.93-.33 1.37-.62-.44-.51-.85-1.09-1.04-1.39l-.01-.02c-.05-.07-.03-.17.04-.21.07-.04.17-.02.21.05.02.02.03.04.04.05.01.01.01.02.02.03.36.55.74 1.03 1.07 1.4.01.01.02.02.03.04.34.36.64.6.83.64.05.01.1.01.13-.01.08-.06.1-.46.05-1-.03-.31-.08-.68-.15-1.04v-.03c0-.07.04-.14.12-.15.08-.01.16.04.17.13.01.03.01.06.02.09l.01-.01c.04-.05.09-.09.13-.15.07-.07.14-.16.21-.27.02-.02.02-.05.04-.05-.04-.02-.09-.03-.13-.05-.2-.06-.39-.14-.59-.22-.11-.04-.22-.1-.32-.15-.8-.39-1.49-.92-2.06-1.55-.25-.02-.49-.03-.75-.03-.27 0-.54.01-.81.03-.52.09-1 .2-1.33.32v.06s-.01.1-.01.26c0 .53.09 1.79.88 2.84.24.3.53.6.9.85m5.3-1.14c.01 0 .02-.01.02-.04.02-.14-.1-.5-.63-1.06-.05-.01-.1-.03-.16-.04-.14.19-.37.46-.49.59-.03.04-.07.08-.12.13.35.19 1.19.5 1.374.42m1.21-1.47c.3-.02.6-.05.89-.11-3.24-.26-5.55-3.51-4.82-6.87 1.67.77 4.36 1.28 7.46 1.12.81-.04 1.66-.13 2.52-.28.11-2.6-1.36-5.11-3.88-6.19-.89-.39-1.85-.56-2.82-.51-2.45.13-4.58 1.62-5.54 3.9-.863 2.03-.593 4.28.53 6.01.05.07.106.16.16.23.06.09.12.17.19.25.03.05.07.1.11.14.04.05.08.1.12.14.01.02.034.04.05.06.03.03.05.06.08.09l.12.12c.08.08.16.15.24.23.51.46 1.1.84 1.76 1.14.03.01.06.02.1.04.09.04.19.08.29.11.15.05.31.1.47.14.63.17 1.29.24 1.96.21m1.56-.41c.18-.01.35-.03.53-.06 1.53-.62 2.77-1.83 3.45-3.42.26-.63.42-1.28.48-1.92-.83.13-1.66.22-2.49.27-2.69.14-5.36-.24-7.24-.99-.11.73-.07 1.47.11 2.18.21.79.6 1.55 1.12 2.16.49.59 1.1 1.05 1.77 1.36.71.32 1.47.46 2.26.42m-14-2.93c.57-.18 1.26-.27 2.05-.27 1.33 0 2.81.25 4.055.54-.97-1.8-1.16-4.02-.3-6.06 1.05-2.46 3.34-4.07 6-4.21 1.06-.06 2.08.127 3.06.546 3.51 1.5 5.14 5.59 3.65 9.11-.46 1.08-1.17 2.007-2.03 2.706-.23.193-.76.55-.82.57-.94.554-2.02.89-3.16.94-.46.03-.91 0-1.36-.066.33.41.49.77.44 1.02-.02.13-.09.22-.18.268-.19.05-.25.04-.36.03-.16-.01-.3-.036-.44-.1-.26-.08-.53-.196-.73-.287l.03.3c.06.59.04 1.17-.22 1.31-.03.01-.07.02-.09.04-.04.01-.08.01-.11.01-.32 0-.7-.29-1.07-.67-.55.37-1.12.62-1.71.74-.09.08-.21.14-.35.16-.05.01-.1.02-.15.02-.13 0-.24-.03-.32-.08-.03 0-.06.01-.09.01-.36 0-.72-.04-1.09-.13-.78.37-1.29.48-1.67.48-.28 0-.48-.04-.68-.1l-.08-.03c-.21-.07-.26-.17-.3-.25-.01-.05-.01-.11-.01-.16-.14.01-.28.02-.43.02-.56 0-1.09-.1-1.37-.32-.2-.16-.27-.37-.2-.62.19-.65.65-1.26 1.2-1.78-1.56-.383-2.46-.31-2.85-.234-.96.42-1.61.76-1.63.77-.03.01-.06.02-.09.02-.04 0-.07-.01-.11-.03-.06-.04-.1-.11-.09-.18 0-.03.31-3.16 3.59-4.01"/>
    <path fill="#FEFEFE" d="M98.478 16.09l1.876.566 2.114.325 2.237.15 1.408-.02 1.473-.15.776-.12.19.31-.154.95-.706 1.73-.932 1.24-1.385 1.08-1.123.58-1.152-.13-1.203-.25-1.016-.53-1.08-.92-.68-.91-.46-1.12-.28-1.19"/>
  </g>
</svg>
